<svg xmlns="http://www.w3.org/2000/svg" version="1.1" xmlns:xlink="http://www.w3.org/1999/xlink" xmlns:svgjs="http://svgjs.dev/svgjs" width="1440" height="810" preserveAspectRatio="none" viewBox="0 0 1440 810"><g mask="url(&quot;#SvgjsMask1280&quot;)" fill="none"><rect width="1440" height="810" x="0" y="0" fill="rgba(43, 167, 134, 1)"></rect><path d="M90.78 418.59L172.19 465.59L172.19 559.59L90.78 606.59L9.37 559.59L9.37 465.59zM9.37 559.59L90.78 606.59L90.78 700.59L9.37 747.59L-72.04 700.59L-72.04 606.59zM90.78 700.59L172.19 747.59L172.19 841.59L90.78 888.59L9.37 841.59L9.37 747.59zM172.19 559.59L253.6 606.59L253.6 700.59L172.19 747.59L90.78 700.59L90.78 606.59zM253.6 700.59L335 747.59L335 841.59L253.6 888.59L172.19 841.59L172.19 747.59zM172.19 841.59L253.6 888.59L253.6 982.59L172.19 1029.59L90.78 982.59L90.78 888.59zM416.41 136.59L497.82 183.59L497.82 277.59L416.41 324.59L335 277.59L335 183.59zM335 277.59L416.41 324.59L416.41 418.59L335 465.59L253.6 418.59L253.6 324.59zM416.41 700.59L497.82 747.59L497.82 841.59L416.41 888.59L335 841.59L335 747.59zM497.82 -4.41L579.23 42.59L579.23 136.59L497.82 183.59L416.41 136.59L416.41 42.59zM497.82 841.59L579.23 888.59L579.23 982.59L497.82 1029.59L416.41 982.59L416.41 888.59zM660.64 559.59L742.05 606.59L742.05 700.59L660.64 747.59L579.23 700.59L579.23 606.59zM742.05 700.59L823.46 747.59L823.46 841.59L742.05 888.59L660.64 841.59L660.64 747.59zM660.64 841.59L742.05 888.59L742.05 982.59L660.64 1029.59L579.23 982.59L579.23 888.59zM904.87 136.59L986.27 183.59L986.27 277.59L904.87 324.59L823.46 277.59L823.46 183.59zM904.87 700.59L986.27 747.59L986.27 841.59L904.87 888.59L823.46 841.59L823.46 747.59zM986.27 277.59L1067.68 324.59L1067.68 418.59L986.27 465.59L904.87 418.59L904.87 324.59zM986.27 841.59L1067.68 888.59L1067.68 982.59L986.27 1029.59L904.87 982.59L904.87 888.59zM1230.5 136.59L1311.91 183.59L1311.91 277.59L1230.5 324.59L1149.09 277.59L1149.09 183.59zM1149.09 277.59L1230.5 324.59L1230.5 418.59L1149.09 465.59L1067.68 418.59L1067.68 324.59zM1149.09 841.59L1230.5 888.59L1230.5 982.59L1149.09 1029.59L1067.68 982.59L1067.68 888.59zM1393.32 136.59L1474.73 183.59L1474.73 277.59L1393.32 324.59L1311.91 277.59L1311.91 183.59zM1311.91 277.59L1393.32 324.59L1393.32 418.59L1311.91 465.59L1230.5 418.59L1230.5 324.59z" stroke="rgba(29, 186, 152, 1)" stroke-width="2"></path></g><defs><mask id="SvgjsMask1280"><rect width="1440" height="810" fill="#ffffff"></rect></mask></defs></svg>